<svg width="60" height="60" viewBox="0 0 60 60" fill="none" xmlns="http://www.w3.org/2000/svg">
<path d="M5.3 14.4C6.01825 14.4 6.6 14.9818 6.6 15.7V44.3C6.6 45.015 6.01825 45.6 5.3 45.6C4.58207 45.6 4 45.015 4 44.3V15.7C4 14.9818 4.58207 14.4 5.3 14.4ZM21.8181 21.2819C22.33 21.7856 22.33 22.6144 21.8181 23.1181L16.2363 28.7H43.7637L38.1819 23.1181C37.67 22.6144 37.67 21.7856 38.1819 21.2819C38.6856 20.77 39.5144 20.77 40.0181 21.2819L47.8181 29.0819C48.33 29.5856 48.33 30.4144 47.8181 30.9181L40.0181 38.7181C39.5144 39.23 38.6856 39.23 38.1819 38.7181C37.67 38.2144 37.67 37.3856 38.1819 36.8819L43.7637 31.3H16.2363L21.8181 36.8819C22.33 37.3856 22.33 38.2144 21.8181 38.7181C21.3144 39.23 20.4856 39.23 19.9819 38.7181L12.1819 30.9181C11.6732 30.4144 11.6732 29.5856 12.1819 29.0819L19.9819 21.2819C20.4856 20.77 21.3144 20.77 21.8181 21.2819ZM56 44.3C56 45.015 55.415 45.6 54.7 45.6C53.985 45.6 53.4 45.015 53.4 44.3V15.7C53.4 14.9818 53.985 14.4 54.7 14.4C55.415 14.4 56 14.9818 56 15.7V44.3Z" fill="#353739"/>
</svg>
