<svg width="60" height="60" viewBox="0 0 60 60" fill="none" xmlns="http://www.w3.org/2000/svg">
<g clip-path="url(#clip0_280_33892)">
<path d="M10.5 34.875V10.5C10.5 6.90977 13.4098 4 17 4H43C46.5852 4 49.5 6.90977 49.5 10.5V34.875C49.5 39.3641 45.8641 43 41.375 43H36.5V49.5C36.5 53.0852 33.5852 56 30 56C26.4148 56 23.5 53.0852 23.5 49.5V43H18.625C14.138 43 10.5 39.3641 10.5 34.875ZM41.375 39.75C44.0664 39.75 46.25 37.5664 46.25 34.875V33.25H13.75V34.875C13.75 37.5664 15.9326 39.75 18.625 39.75H26.75V49.5C26.75 51.2977 28.2023 52.75 30 52.75C31.7977 52.75 33.25 51.2977 33.25 49.5V39.75H41.375ZM46.25 10.5C46.25 8.70539 44.7977 7.25 43 7.25H33.25V15.375C33.25 16.2688 32.5188 17 31.625 17C30.7312 17 30 16.2688 30 15.375V7.25H23.5V18.625C23.5 19.5188 22.7688 20.25 21.875 20.25C20.9812 20.25 20.25 19.5188 20.25 18.625V7.25H17C15.2054 7.25 13.75 8.70539 13.75 10.5V30H46.25V10.5Z" fill="#353739"/>
</g>
<defs>
<clipPath id="clip0_280_33892">
<rect width="39" height="52" fill="white" transform="translate(10.5 4)"/>
</clipPath>
</defs>
</svg>
