<svg width="60" height="60" viewBox="0 0 60 60" fill="none" xmlns="http://www.w3.org/2000/svg">
<path d="M28.5553 18.4445C30.9477 18.4445 32.8887 20.3855 32.8887 22.7778V28.5556C32.8887 30.948 30.9477 32.8889 28.5553 32.8889H19.8887C17.4963 32.8889 15.5553 30.948 15.5553 28.5556V22.7778C15.5553 20.3855 17.4963 18.4445 19.8887 18.4445H28.5553ZM18.4442 28.5556C18.4442 29.3501 19.0942 30.0001 19.8887 30.0001H28.5553C29.3498 30.0001 29.9998 29.3501 29.9998 28.5556V22.7778C29.9998 21.9834 29.3498 21.3334 28.5553 21.3334H19.8887C19.0942 21.3334 18.4442 21.9834 18.4442 22.7778V28.5556ZM35.7776 28.5556C35.7776 27.7612 36.4276 27.1112 37.222 27.1112H40.1109C42.5033 27.1112 44.4442 29.0521 44.4442 31.4445V37.2223C44.4442 39.6146 42.5033 41.5556 40.1109 41.5556H31.4442C29.0519 41.5556 27.1109 39.6146 27.1109 37.2223C27.1109 36.4278 27.7609 35.7778 28.5553 35.7778C29.3498 35.7778 29.9998 36.4278 29.9998 37.2223C29.9998 38.0167 30.6498 38.6667 31.4442 38.6667H40.1109C40.9053 38.6667 41.5553 38.0167 41.5553 37.2223V31.4445C41.5553 30.6501 40.9053 30.0001 40.1109 30.0001H37.222C36.4276 30.0001 35.7776 29.3501 35.7776 28.5556ZM9.77756 18.2007C8.09478 17.6049 6.88867 15.998 6.88867 14.1112C6.88867 11.7179 8.82874 9.77783 11.222 9.77783C13.1088 9.77783 14.7158 10.9839 15.3116 12.6667H44.688C45.2838 10.9839 46.8908 9.77783 48.7776 9.77783C51.1699 9.77783 53.1109 11.7179 53.1109 14.1112C53.1109 15.998 51.9012 17.6049 50.222 18.2007V41.7994C51.9012 42.3952 53.1109 44.0021 53.1109 45.8889C53.1109 48.2813 51.1699 50.2223 48.7776 50.2223C46.8908 50.2223 45.2838 49.0126 44.688 47.3334H15.3116C14.7158 49.0126 13.1088 50.2223 11.222 50.2223C8.82874 50.2223 6.88867 48.2813 6.88867 45.8889C6.88867 44.0021 8.09478 42.3952 9.77756 41.7994V18.2007ZM12.6664 18.2007V41.7994C13.8942 42.2417 14.8692 43.2167 15.3116 44.4445H44.688C45.1303 43.2167 46.1053 42.2417 47.3331 41.7994V18.2007C46.1053 17.7584 45.1303 16.7834 44.688 15.5556H15.3116C14.8692 16.7834 13.8942 17.7584 12.6664 18.2007ZM47.3331 45.8889C47.3331 46.6834 47.9831 47.3334 48.7776 47.3334C49.572 47.3334 50.222 46.6834 50.222 45.8889C50.222 45.0945 49.572 44.4445 48.7776 44.4445C47.9831 44.4445 47.3331 45.0945 47.3331 45.8889ZM12.6664 45.8889C12.6664 45.0945 12.0201 44.4445 11.222 44.4445C10.4239 44.4445 9.77756 45.0945 9.77756 45.8889C9.77756 46.6834 10.4239 47.3334 11.222 47.3334C12.0201 47.3334 12.6664 46.6834 12.6664 45.8889ZM47.3331 14.1112C47.3331 14.9092 47.9831 15.5556 48.7776 15.5556C49.572 15.5556 50.222 14.9092 50.222 14.1112C50.222 13.3131 49.572 12.6667 48.7776 12.6667C47.9831 12.6667 47.3331 13.3131 47.3331 14.1112ZM12.6664 14.1112C12.6664 13.3131 12.0201 12.6667 11.222 12.6667C10.4239 12.6667 9.77756 13.3131 9.77756 14.1112C9.77756 14.9092 10.4239 15.5556 11.222 15.5556C12.0201 15.5556 12.6664 14.9092 12.6664 14.1112Z" fill="#353739"/>
</svg>
