<svg width="60" height="60" viewBox="0 0 60 60" fill="none" xmlns="http://www.w3.org/2000/svg">
<path d="M50.8 23.5C49.2944 23.5 47.8677 24.3125 46.887 25.7279C46.8106 25.84 46.5993 26.1 46.2825 26.1C45.9087 26.1 45.6 25.7994 45.6 25.4175V18.3C45.6 16.1493 43.8531 14.4 41.7 14.4H34.5792C32.7706 14.3269 31.3 15.8715 31.3 17.6825C31.3 18.7542 31.8573 19.7812 32.7917 20.4288C33.2093 20.7131 33.9 21.3225 33.9 22.2C33.9 23.6089 32.1141 24.8 30 24.8C27.8858 24.8 26.1 23.6056 26.1 22.2C26.1 21.3225 26.7944 20.7123 27.2107 20.4239C28.1393 19.7788 28.7 18.7469 28.7 17.6825C28.7 15.8747 27.2285 14.4033 25.4207 14.4033L18.3 14.4C16.1468 14.4 14.4 16.1493 14.4 18.3V25.4208C14.4 25.7994 14.0993 26.1 13.7175 26.1C13.4013 26.1 13.1868 25.8398 13.1094 25.7281C12.1331 24.3125 10.7055 23.5 9.19997 23.5C6.33184 23.5 4 26.4169 4 30C4 33.5831 6.33184 36.5 9.19997 36.5C10.7072 36.5 12.1323 35.7606 13.1113 34.2721C13.1893 34.16 13.4006 33.9 13.7175 33.9C14.0993 33.9 14.4 34.2006 14.4 34.5825V41.7C14.4 43.8531 16.1468 45.6 18.3 45.6H25.4207C27.2293 45.6 28.7 44.1294 28.7 42.3175C28.7 41.2458 28.1427 40.2188 27.2082 39.5713C26.7906 39.2869 26.1 38.6775 26.1 37.8C26.1 36.3911 27.8858 35.2 30 35.2C32.1141 35.2 33.9 36.3911 33.9 37.8C33.9 38.6775 33.2055 39.2877 32.7893 39.5761C31.8606 40.2213 31.3 41.2531 31.3 42.3175C31.3 44.1294 32.7706 45.6 34.5825 45.6H41.7C43.8507 45.6 45.6 43.8507 45.6 41.7V34.5825C45.6 34.2006 45.9087 33.9 46.2825 33.9C46.5998 33.9 46.8144 34.1603 46.8905 34.2695C47.8668 35.6875 49.2968 36.5 50.8 36.5C53.6681 36.5 56 33.584 56 30C56 26.4161 53.6681 23.5 50.8 23.5ZM50.8 33.9C49.9225 33.9 49.3123 33.2056 49.0238 32.7893C48.3787 31.8606 47.3468 31.3 46.2825 31.3C44.4706 31.3 43 32.7706 43 34.5825V41.7C43 42.4173 42.4172 43 41.7 43H34.5792C34.2087 43 33.9 42.6994 33.9 42.3175C33.9 42.0002 34.1602 41.7856 34.2694 41.7094C35.6143 40.7331 36.5 39.3031 36.5 37.8C36.5 34.9319 33.5839 32.6 30 32.6C26.416 32.6 23.5 34.9319 23.5 37.8C23.5 39.3072 24.2393 40.7323 25.7278 41.7114C25.84 41.7894 26.1 42.0006 26.1 42.3175C26.1 42.6994 25.7993 43 25.4175 43H18.3C17.585 43 17 42.415 17 41.7V34.5825C17 32.7706 15.5293 31.3 13.7175 31.3C12.6458 31.3 11.6188 31.8573 10.9712 32.7918C10.6877 33.2094 10.0775 33.9 9.19997 33.9C7.79109 33.9 6.59997 32.1125 6.59997 30C6.59997 27.8875 7.79109 26.1 9.19997 26.1C10.0775 26.1 10.6877 26.7945 10.9745 27.2083C11.6212 28.1394 12.645 28.7 13.7175 28.7C15.5293 28.7 17 27.2294 17 25.4175V18.3C17 17.585 17.585 17 18.3 17H25.4207C25.7993 17 26.1 17.3047 26.1 17.6825C26.1 17.9999 25.8397 18.2145 25.7305 18.2906C24.2393 19.2669 23.5 20.6969 23.5 22.2C23.5 25.0681 26.416 27.4 30 27.4C33.5839 27.4 36.5 25.0681 36.5 22.2C36.5 20.6928 35.6875 19.2677 34.2721 18.2886C34.16 18.2106 33.9 17.9994 33.9 17.6825C33.9 17.3047 34.2087 17 34.5825 17H41.7C42.415 17 43 17.585 43 18.3V25.4208C43 27.2294 44.4706 28.7 46.2825 28.7C47.355 28.7 48.382 28.1427 49.0287 27.2083C49.3131 26.7906 49.9225 26.1 50.8 26.1C52.2088 26.1 53.4 27.8859 53.4 30C53.4 32.1141 52.2056 33.9 50.8 33.9Z" fill="#353739"/>
</svg>
