<svg width="60" height="60" viewBox="0 0 60 60" fill="none" xmlns="http://www.w3.org/2000/svg">
<path d="M20.5181 30.3819C21.03 30.8856 21.03 31.7144 20.5181 32.2181C20.0144 32.73 19.1856 32.73 18.6819 32.2181L11.5311 25.0681C11.0232 24.5644 11.0232 23.7356 11.5311 23.2319C12.0381 22.72 12.8644 22.72 13.3681 23.2319L20.5181 30.3819ZM28.7 17C28.7 16.2818 29.285 15.7 30 15.7C30.715 15.7 31.3 16.2818 31.3 17V27.4C31.3 28.115 30.715 28.7 30 28.7C29.285 28.7 28.7 28.115 28.7 27.4V17ZM46.6319 23.2319C47.1356 22.72 47.9644 22.72 48.4681 23.2319C48.98 23.7356 48.98 24.5644 48.4681 25.0681L41.3181 32.2181C40.8144 32.73 39.9856 32.73 39.4819 32.2181C38.97 31.7144 38.97 30.8856 39.4819 30.3819L46.6319 23.2319ZM4 41.7C4 40.985 4.58207 40.4 5.3 40.4H13.1C13.815 40.4 14.4 40.985 14.4 41.7C14.4 42.415 13.815 43 13.1 43H5.3C4.58207 43 4 42.415 4 41.7ZM39.1 40.4C39.815 40.4 40.4 40.985 40.4 41.7C40.4 42.415 39.815 43 39.1 43H20.9C20.185 43 19.6 42.415 19.6 41.7C19.6 40.985 20.185 40.4 20.9 40.4H39.1ZM54.7 40.4C55.415 40.4 56 40.985 56 41.7C56 42.415 55.415 43 54.7 43H46.9C46.185 43 45.6 42.415 45.6 41.7C45.6 40.985 46.185 40.4 46.9 40.4H54.7Z" fill="#353739"/>
</svg>
