<svg width="60" height="60" viewBox="0 0 60 60" fill="none" xmlns="http://www.w3.org/2000/svg">
<g clip-path="url(#clip0_280_39564)">
<path d="M30 56C17.4367 56 7.25 52.3641 7.25 47.875V12.125C7.25 7.63797 17.4367 4 30 4C42.5633 4 52.75 7.63797 52.75 12.125V47.875C52.75 52.3641 42.5633 56 30 56ZM49.5 12.1707C49.4695 12.0935 49.3375 11.8477 48.8703 11.4455C48.1187 10.8159 46.8492 10.1029 44.9906 9.4407C41.3141 8.12547 36.0125 7.25 30 7.25C23.9875 7.25 18.6859 8.12547 15.0063 9.4407C13.1508 10.1029 11.8802 10.8159 11.1348 11.4455C10.6574 11.8477 10.5295 12.0935 10.5 12.1707V22.4945C11.9696 23.5711 14.3492 24.5969 17.4977 25.3687C21.0117 26.232 25.2367 26.75 30 26.75C34.6719 26.75 38.9883 26.232 42.5023 25.3687C45.6508 24.5969 48.0273 23.5711 49.5 22.4945V12.1707ZM49.5 26.293C47.7531 27.1969 45.6305 27.9484 43.2844 28.5273C39.4758 29.4617 34.8953 30 30 30C25.1047 30 20.5242 29.4617 16.7177 28.5273C14.3705 27.9484 12.2448 27.1969 10.5 26.293V35.4945C11.9696 36.5711 14.3492 37.5969 17.4977 38.3687C21.0117 39.232 25.2367 39.75 30 39.75C34.6719 39.75 38.9883 39.232 42.5023 38.3687C45.6508 37.5969 48.0273 36.5711 49.5 35.4945V26.293ZM11.1348 48.5555C11.8802 49.1852 13.1508 49.8961 15.0063 50.5562C18.6859 51.8766 23.9875 52.75 30 52.75C36.0125 52.75 41.3141 51.8766 44.9906 50.5562C46.8492 49.8961 48.1187 49.1852 48.8703 48.5555C49.3375 48.1492 49.4695 47.9055 49.5 47.8344V39.293C47.7531 40.1969 45.6305 40.9484 43.2844 41.5273C39.4758 42.4617 34.8953 43 30 43C25.1047 43 20.5242 42.4617 16.7177 41.5273C14.3705 40.9484 12.2448 40.1969 10.5 39.293V47.8344C10.5295 47.9055 10.6574 48.1492 11.1348 48.5555ZM49.5 47.8141C49.5102 47.8039 49.5102 47.8039 49.5102 47.8039L49.5 47.8141ZM10.4959 47.8141C10.4939 47.8039 10.4929 47.8039 10.4919 47.8039L10.4959 47.8141ZM10.4959 12.1819C10.4929 12.191 10.4919 12.1961 10.4919 12.1961L10.4959 12.1819ZM49.5102 12.1961C49.5102 12.1961 49.5102 12.191 49.5 12.1819L49.5102 12.1961Z" fill="#353739"/>
</g>
<defs>
<clipPath id="clip0_280_39564">
<rect width="45.5" height="52" fill="white" transform="translate(7.25 4)"/>
</clipPath>
</defs>
</svg>
