<svg width="60" height="60" viewBox="0 0 60 60" fill="none" xmlns="http://www.w3.org/2000/svg">
<g clip-path="url(#clip0_280_29617)">
<path d="M52.1102 4.42005C54.1211 4.01785 56 5.55593 56 7.60647V20.9711H55.9797C55.9898 21.1945 56 21.3367 56 21.3773C56 24.3836 53.0852 26.6586 49.5 26.6586C45.9148 26.6586 43 24.3836 43 21.3773C43 18.5539 45.9148 16.0961 49.5 16.0961C50.6883 16.0961 51.7953 16.4414 52.75 16.807V7.60749L39.75 10.2075V24.2211H39.7297C39.7398 24.4445 39.75 24.5867 39.75 24.6273C39.75 27.6336 36.8352 29.9086 33.25 29.9086C29.6648 29.9086 26.75 27.6336 26.75 24.6273C26.75 21.8039 29.6648 19.3461 33.25 19.3461C34.4383 19.3461 35.5453 19.6914 36.5 20.057V10.2075C36.5 8.65765 37.5969 7.32413 39.1102 7.02046L52.1102 4.42005ZM52.0492 20.2601C51.4805 19.8031 50.5969 19.3461 49.5 19.3461C48.4031 19.3461 47.5195 19.8031 46.9508 20.2601C46.4023 20.707 46.25 21.1539 46.25 21.3773C46.25 21.7836 46.4023 22.2305 46.9508 22.6773C47.5195 23.1344 48.4031 23.4086 49.5 23.4086C50.5969 23.4086 51.4805 23.1344 52.0492 22.6773C52.5977 22.2305 52.75 21.7836 52.75 21.3773C52.75 21.1539 52.5977 20.707 52.0492 20.2601ZM35.7992 23.5101C35.2305 23.0531 34.3469 22.5961 33.25 22.5961C32.1531 22.5961 31.2695 23.0531 30.7008 23.5101C30.1523 23.957 30 24.4039 30 24.6273C30 25.0336 30.1523 25.4805 30.7008 25.9273C31.2695 26.3844 32.1531 26.6586 33.25 26.6586C34.3469 26.6586 35.2305 26.3844 35.7992 25.9273C36.3477 25.4805 36.5 25.0336 36.5 24.6273C36.5 24.4039 36.3477 23.957 35.7992 23.5101ZM10.0653 4.61414C12.3769 4.22881 14.7352 4.98332 16.2992 6.6396L17 7.24999L17.518 6.64163C19.2648 4.98383 21.6211 4.22871 23.9367 4.61414C27.4305 5.19741 30 8.226 30 11.7736V12.0691C30 14.1766 29.1266 16.1875 27.5828 17.6297L18.4016 26.1914C18.0258 26.5469 17.518 26.75 17 26.75C16.482 26.75 15.9742 26.5469 15.5984 26.1914L6.41617 17.6297C4.87516 16.1875 4 14.1766 4 12.0691V11.7746C4 8.226 6.56547 5.19741 10.0653 4.61414ZM14.0933 8.93897C13.1782 8.0239 11.8762 7.60749 10.5995 7.81975C8.6668 8.14171 7.25 9.81444 7.25 11.7736V12.0691C7.25 13.2767 7.75172 14.4305 8.6343 15.2531L17 23.0633L25.3687 15.2531C26.2523 14.4305 26.75 13.2767 26.75 12.0691V11.7736C26.75 9.81444 25.3383 8.14171 23.3984 7.81975C22.1187 7.60749 20.8188 8.0239 19.9047 8.93897L17 11.8467L14.0933 8.93897ZM25.125 43.8125C25.125 47.3976 22.2102 50.3125 18.625 50.3125C15.0398 50.3125 12.125 47.3976 12.125 43.8125C12.125 40.2273 15.0398 37.3125 18.625 37.3125C22.2102 37.3125 25.125 40.2273 25.125 43.8125ZM18.625 47.0625C20.4227 47.0625 21.875 45.6101 21.875 43.8125C21.875 42.0148 20.4227 40.5625 18.625 40.5625C16.8273 40.5625 15.375 42.0148 15.375 43.8125C15.375 45.6101 16.8273 47.0625 18.625 47.0625ZM25.2063 31.7976L25.9375 33.25H28.375C31.0664 33.25 33.25 35.4336 33.25 38.125V51.125C33.25 53.8164 31.0664 56 28.375 56H8.875C6.18258 56 4 53.8164 4 51.125V38.125C4 35.4336 6.18258 33.25 8.875 33.25H11.2211L12.0397 31.7976C12.5902 30.6906 13.7155 29.9086 14.9484 29.9086H22.3016C23.5305 29.9086 24.6578 30.6906 25.2063 31.7976ZM8.875 36.5C7.97719 36.5 7.25 37.2312 7.25 38.125V51.125C7.25 52.0187 7.97719 52.75 8.875 52.75H28.375C29.2688 52.75 30 52.0187 30 51.125V38.125C30 37.2312 29.2688 36.5 28.375 36.5H23.9266L22.3016 33.1586H14.9484L13.3214 36.5H8.875ZM43.6703 41.375H52.75C53.4102 41.375 53.9992 41.7711 54.2531 42.3805C54.507 42.9898 54.3648 43.6805 53.8977 44.1476L42.5227 55.5226C41.893 56.1625 40.857 56.1625 40.2273 55.5226C39.5875 54.893 39.5875 53.857 40.2273 53.2273L48.8297 44.625H39.75C39.0898 44.625 38.5008 44.2289 38.2469 43.6195C37.993 43.0101 38.1352 42.3195 38.6023 41.8523L49.9773 30.4773C50.607 29.8375 51.643 29.8375 52.2727 30.4773C52.9125 31.107 52.9125 32.143 52.2727 32.7726L43.6703 41.375Z" fill="#353739"/>
</g>
<defs>
<clipPath id="clip0_280_29617">
<rect width="52" height="52" fill="white" transform="translate(4 4)"/>
</clipPath>
</defs>
</svg>
