<svg width="512" height="512" viewBox="0 0 512 512" fill="none" xmlns="http://www.w3.org/2000/svg">
<g clip-path="url(#clip0_250_92363)">
<path d="M264 248H504C508.4 248 512 251.6 512 256C512 260.4 508.4 264 504 264H264V504C264 508.4 260.4 512 256 512C251.6 512 248 508.4 248 504V264H8C3.582 264 0 260.4 0 256C0 251.6 3.582 248 8 248H248V8C248 3.582 251.6 0 256 0C260.4 0 264 3.582 264 8V248Z" fill="black"/>
</g>
<defs>
<clipPath id="clip0_250_92363">
<rect width="512" height="512" fill="white"/>
</clipPath>
</defs>
</svg>
