<svg width="60" height="60" viewBox="0 0 60 60" fill="none" xmlns="http://www.w3.org/2000/svg">
<g clip-path="url(#clip0_280_29620)">
<path d="M51.125 4C52.0188 4 52.75 4.72759 52.75 5.625V54.375C52.75 55.2688 52.0188 56 51.125 56C50.2312 56 49.5 55.2688 49.5 54.375V5.625C49.5 4.72759 50.2312 4 51.125 4ZM39.75 41.375C39.75 44.0664 37.5664 46.25 34.875 46.25H25.125C22.4336 46.25 20.25 44.0664 20.25 41.375V18.625C20.25 15.9336 22.4336 13.75 25.125 13.75H34.875C37.5664 13.75 39.75 15.9336 39.75 18.625V41.375ZM36.5 41.375V18.625C36.5 17.7312 35.7688 17 34.875 17H25.125C24.2312 17 23.5 17.7312 23.5 18.625V41.375C23.5 42.2688 24.2312 43 25.125 43H34.875C35.7688 43 36.5 42.2688 36.5 41.375ZM10.5 54.375C10.5 55.2688 9.77281 56 8.875 56C7.97759 56 7.25 55.2688 7.25 54.375V5.625C7.25 4.72759 7.97759 4 8.875 4C9.77281 4 10.5 4.72759 10.5 5.625V54.375Z" fill="#353739"/>
</g>
<defs>
<clipPath id="clip0_280_29620">
<rect width="45.5" height="52" fill="white" transform="translate(7.25 4)"/>
</clipPath>
</defs>
</svg>
