<svg width="60" height="60" viewBox="0 0 60 60" fill="none" xmlns="http://www.w3.org/2000/svg">
<g clip-path="url(#clip0_280_29614)">
<path d="M19.5107 12.5556C19.1247 11.5481 17.4697 11.5481 17.0837 12.5556L4.08689 46.4288C3.82917 47.1005 4.16433 47.8539 4.83334 48.1131C5.50365 48.3701 6.25521 48.0342 6.5144 47.365L10.1934 37.7775H26.4088L30.0878 47.365C30.2844 47.8831 30.78 48.2 31.3 48.2C31.4549 48.2 31.6136 48.172 31.7672 48.1135C32.4362 47.854 32.7715 47.1011 32.5137 46.4292L19.5107 12.5556ZM11.1939 35.1756L18.3008 16.6588L25.4078 35.1756H11.1939ZM54.7 22.1431C53.9815 22.1431 53.4732 22.7259 53.4732 23.4456V25.7441C51.5654 23.5553 48.794 22.1423 45.7463 22.1423C40.0117 22.1423 35.4194 26.8166 35.4194 32.5667L35.4192 37.7951C35.4192 43.5436 40.0846 48.2033 45.7461 48.2033C48.8669 48.2033 51.6384 46.7895 53.5461 44.6015V46.9C53.4 47.615 53.985 48.2 54.7 48.2C55.415 48.2 56 47.615 56 46.8269V23.4431C56 22.7281 55.415 22.1431 54.7 22.1431ZM53.4 37.7756C53.4 42.086 49.9014 45.5927 45.6732 45.5927C41.3718 45.5927 37.9463 42.086 37.9463 37.7756V32.5675C37.9463 28.2572 41.4449 24.7505 45.6732 24.7505C49.9745 24.7505 53.4 28.2572 53.4 32.5675V37.7756Z" fill="#353739"/>
</g>
<defs>
<clipPath id="clip0_280_29614">
<rect width="52" height="41.6" fill="white" transform="translate(4 9.20001)"/>
</clipPath>
</defs>
</svg>
