<svg width="18" height="18" viewBox="0 0 18 18" fill="none" xmlns="http://www.w3.org/2000/svg">
<path d="M12.4507 8.49062C12.3156 8.62572 12.2397 8.80896 12.2397 9.00002C12.2397 9.19108 12.3156 9.37432 12.4507 9.50942C12.5858 9.64452 12.769 9.72042 12.9601 9.72042C13.1512 9.72042 13.3344 9.64452 13.4695 9.50942L13.7287 9.25022C14.3646 8.58528 14.7149 7.69785 14.7047 6.77787C14.6945 5.85788 14.3246 4.97844 13.6741 4.32775C13.0237 3.67707 12.1444 3.30684 11.2244 3.29631C10.3044 3.28578 9.41686 3.63579 8.75169 4.27142L8.49249 4.53062C8.35739 4.66572 8.28149 4.84896 8.28149 5.04002C8.28149 5.23108 8.35739 5.41432 8.49249 5.54942C8.6276 5.68452 8.81083 5.76042 9.00189 5.76042C9.19296 5.76042 9.37619 5.68452 9.51129 5.54942L9.77049 5.29022C9.96128 5.08687 10.191 4.92393 10.446 4.8111C10.701 4.69826 10.976 4.63783 11.2548 4.63338C11.5336 4.62894 11.8105 4.68057 12.0689 4.78522C12.3274 4.88987 12.5622 5.0454 12.7593 5.24257C12.9565 5.43974 13.112 5.67452 13.2167 5.93298C13.3213 6.19143 13.373 6.46828 13.3685 6.74709C13.3641 7.02589 13.3037 7.30095 13.1908 7.55594C13.078 7.81093 12.915 8.04064 12.7117 8.23142L12.4507 8.49062Z" fill="white"/>
<path d="M6.76092 14.76C7.22345 14.7612 7.68163 14.6707 8.10894 14.4937C8.53624 14.3166 8.92419 14.0566 9.25032 13.7286L9.50952 13.4694C9.64462 13.3343 9.72052 13.1511 9.72052 12.96C9.72052 12.7689 9.64462 12.5857 9.50952 12.4506C9.37442 12.3155 9.19118 12.2396 9.00012 12.2396C8.80905 12.2396 8.62582 12.3155 8.49072 12.4506L8.23152 12.7098C8.04073 12.9132 7.81103 13.0761 7.55604 13.1889C7.30105 13.3018 7.02599 13.3622 6.74718 13.3666C6.46838 13.3711 6.19153 13.3194 5.93307 13.2148C5.67462 13.1101 5.43983 12.9546 5.24267 12.7575C5.0455 12.5603 4.88997 12.3255 4.78532 12.067C4.68067 11.8086 4.62903 11.5317 4.63348 11.2529C4.63792 10.9741 4.69836 10.6991 4.81119 10.4441C4.92403 10.1891 5.08696 9.95939 5.29032 9.7686L5.54952 9.5094C5.68462 9.3743 5.76052 9.19106 5.76052 9C5.76052 8.80894 5.68462 8.6257 5.54952 8.4906C5.41442 8.3555 5.23118 8.2796 5.04012 8.2796C4.84905 8.2796 4.66582 8.3555 4.53072 8.4906L4.27152 8.7498C3.7792 9.24219 3.44393 9.86951 3.30811 10.5524C3.17229 11.2353 3.24201 11.9432 3.50846 12.5865C3.77492 13.2298 4.22613 13.7796 4.80506 14.1665C5.38398 14.5534 6.06462 14.7599 6.76092 14.76Z" fill="white"/>
<path d="M12.8107 13.8294C12.8776 13.8963 12.957 13.9494 13.0444 13.9856C13.1318 14.0218 13.2255 14.0404 13.3201 14.0404C13.4147 14.0404 13.5084 14.0218 13.5958 13.9856C13.6832 13.9494 13.7626 13.8963 13.8295 13.8294C13.8964 13.7625 13.9495 13.6831 13.9857 13.5957C14.0219 13.5083 14.0405 13.4146 14.0405 13.32C14.0405 13.2254 14.0219 13.1317 13.9857 13.0443C13.9495 12.9569 13.8964 12.8775 13.8295 12.8106L5.18952 4.1706C5.05442 4.03549 4.87118 3.95959 4.68012 3.95959C4.48906 3.95959 4.30582 4.03549 4.17072 4.1706C4.03562 4.3057 3.95972 4.48893 3.95972 4.68C3.95972 4.87106 4.03562 5.05429 4.17072 5.18939L12.8107 13.8294Z" fill="white"/>
</svg>
