<svg width="30" height="17" viewBox="0 0 30 17" fill="none" xmlns="http://www.w3.org/2000/svg">
<rect width="30" height="17" rx="3" fill="black"/>
<path d="M6.09846 12H4.6155L6.87509 5.45455H8.65847L10.9149 12H9.43191L7.79235 6.95028H7.74121L6.09846 12ZM6.00577 9.4272H9.50861V10.5075H6.00577V9.4272ZM13.3309 12H11.8479L14.1075 5.45455H15.8909L18.1473 12H16.6643L15.0248 6.95028H14.9736L13.3309 12ZM13.2382 9.4272H16.741V10.5075H13.2382V9.4272ZM20.5633 12H19.0803L21.3399 5.45455H23.1233L25.3797 12H23.8968L22.2572 6.95028H22.2061L20.5633 12ZM20.4706 9.4272H23.9735V10.5075H20.4706V9.4272Z" fill="white"/>
</svg>
