<svg width="30" height="17" viewBox="0 0 30 17" fill="none" xmlns="http://www.w3.org/2000/svg">
<rect width="30" height="17" rx="3" fill="black"/>
<path d="M8.61213 12.0927C8.29892 12.0927 8.0198 12.0384 7.77477 11.9297C7.52974 11.8189 7.33585 11.6559 7.19309 11.4407C7.05247 11.2234 6.98216 10.9528 6.98216 10.6289C6.98216 10.3562 7.03223 10.1271 7.13237 9.94176C7.23251 9.75639 7.36887 9.60724 7.54146 9.49432C7.71404 9.38139 7.91007 9.29616 8.12953 9.23864C8.35112 9.18111 8.58336 9.14062 8.82626 9.11719C9.11177 9.08736 9.34189 9.05966 9.5166 9.03409C9.69132 9.00639 9.81809 8.96591 9.89693 8.91264C9.97576 8.85937 10.0152 8.78054 10.0152 8.67614V8.65696C10.0152 8.45455 9.95126 8.29794 9.82342 8.18714C9.69771 8.07635 9.51873 8.02095 9.28649 8.02095C9.04146 8.02095 8.8465 8.07528 8.70162 8.18395C8.55673 8.29048 8.46085 8.42472 8.41397 8.58665L7.15474 8.48438C7.21866 8.18608 7.34437 7.92827 7.53187 7.71094C7.71937 7.49148 7.9612 7.32315 8.25737 7.20597C8.55566 7.08665 8.90083 7.02699 9.29288 7.02699C9.56561 7.02699 9.82662 7.05895 10.0759 7.12287C10.3273 7.18679 10.55 7.28587 10.7439 7.4201C10.9399 7.55433 11.0944 7.72692 11.2073 7.93786C11.3202 8.14666 11.3767 8.39702 11.3767 8.68892V12H10.0855V11.3192H10.0471C9.96831 11.4727 9.86284 11.608 9.73074 11.7251C9.59863 11.8402 9.4399 11.9308 9.25453 11.9968C9.06916 12.0607 8.85502 12.0927 8.61213 12.0927ZM9.00204 11.1531C9.20233 11.1531 9.37917 11.1136 9.53258 11.0348C9.68599 10.9538 9.80637 10.8452 9.89373 10.7088C9.98109 10.5724 10.0248 10.418 10.0248 10.2454V9.72443C9.98216 9.75213 9.92356 9.7777 9.84899 9.80114C9.77654 9.82244 9.69451 9.84268 9.60289 9.86186C9.51127 9.87891 9.41966 9.89489 9.32804 9.9098C9.23642 9.92259 9.15332 9.9343 9.07875 9.94496C8.91895 9.96839 8.77939 10.0057 8.66007 10.0568C8.54075 10.108 8.44806 10.1772 8.38201 10.2646C8.31596 10.3498 8.28294 10.4563 8.28294 10.5842C8.28294 10.7695 8.35005 10.9112 8.48429 11.0092C8.62065 11.1051 8.79324 11.1531 9.00204 11.1531ZM14.3328 12.0927C14.0196 12.0927 13.7405 12.0384 13.4955 11.9297C13.2504 11.8189 13.0566 11.6559 12.9138 11.4407C12.7732 11.2234 12.7029 10.9528 12.7029 10.6289C12.7029 10.3562 12.7529 10.1271 12.8531 9.94176C12.9532 9.75639 13.0896 9.60724 13.2622 9.49432C13.4347 9.38139 13.6308 9.29616 13.8502 9.23864C14.0718 9.18111 14.3041 9.14062 14.547 9.11719C14.8325 9.08736 15.0626 9.05966 15.2373 9.03409C15.412 9.00639 15.5388 8.96591 15.6176 8.91264C15.6965 8.85937 15.7359 8.78054 15.7359 8.67614V8.65696C15.7359 8.45455 15.672 8.29794 15.5441 8.18714C15.4184 8.07635 15.2394 8.02095 15.0072 8.02095C14.7622 8.02095 14.5672 8.07528 14.4223 8.18395C14.2774 8.29048 14.1816 8.42472 14.1347 8.58665L12.8754 8.48438C12.9394 8.18608 13.0651 7.92827 13.2526 7.71094C13.4401 7.49148 13.6819 7.32315 13.9781 7.20597C14.2764 7.08665 14.6215 7.02699 15.0136 7.02699C15.2863 7.02699 15.5473 7.05895 15.7966 7.12287C16.048 7.18679 16.2707 7.28587 16.4646 7.4201C16.6606 7.55433 16.8151 7.72692 16.928 7.93786C17.0409 8.14666 17.0974 8.39702 17.0974 8.68892V12H15.8062V11.3192H15.7678C15.689 11.4727 15.5835 11.608 15.4514 11.7251C15.3193 11.8402 15.1606 11.9308 14.9752 11.9968C14.7899 12.0607 14.5757 12.0927 14.3328 12.0927ZM14.7227 11.1531C14.923 11.1531 15.0999 11.1136 15.2533 11.0348C15.4067 10.9538 15.5271 10.8452 15.6144 10.7088C15.7018 10.5724 15.7455 10.418 15.7455 10.2454V9.72443C15.7029 9.75213 15.6443 9.7777 15.5697 9.80114C15.4972 9.82244 15.4152 9.84268 15.3236 9.86186C15.232 9.87891 15.1404 9.89489 15.0487 9.9098C14.9571 9.92259 14.874 9.9343 14.7994 9.94496C14.6396 9.96839 14.5001 10.0057 14.3808 10.0568C14.2615 10.108 14.1688 10.1772 14.1027 10.2646C14.0367 10.3498 14.0036 10.4563 14.0036 10.5842C14.0036 10.7695 14.0708 10.9112 14.205 11.0092C14.3414 11.1051 14.5139 11.1531 14.7227 11.1531ZM20.0535 12.0927C19.7403 12.0927 19.4612 12.0384 19.2162 11.9297C18.9711 11.8189 18.7773 11.6559 18.6345 11.4407C18.4939 11.2234 18.4236 10.9528 18.4236 10.6289C18.4236 10.3562 18.4736 10.1271 18.5738 9.94176C18.6739 9.75639 18.8103 9.60724 18.9829 9.49432C19.1555 9.38139 19.3515 9.29616 19.5709 9.23864C19.7925 9.18111 20.0248 9.14062 20.2677 9.11719C20.5532 9.08736 20.7833 9.05966 20.958 9.03409C21.1327 9.00639 21.2595 8.96591 21.3383 8.91264C21.4172 8.85937 21.4566 8.78054 21.4566 8.67614V8.65696C21.4566 8.45455 21.3927 8.29794 21.2648 8.18714C21.1391 8.07635 20.9601 8.02095 20.7279 8.02095C20.4829 8.02095 20.2879 8.07528 20.143 8.18395C19.9981 8.29048 19.9023 8.42472 19.8554 8.58665L18.5961 8.48438C18.6601 8.18608 18.7858 7.92827 18.9733 7.71094C19.1608 7.49148 19.4026 7.32315 19.6988 7.20597C19.9971 7.08665 20.3422 7.02699 20.7343 7.02699C21.007 7.02699 21.268 7.05895 21.5173 7.12287C21.7687 7.18679 21.9914 7.28587 22.1853 7.4201C22.3813 7.55433 22.5358 7.72692 22.6487 7.93786C22.7616 8.14666 22.8181 8.39702 22.8181 8.68892V12H21.5269V11.3192H21.4885C21.4097 11.4727 21.3042 11.608 21.1721 11.7251C21.04 11.8402 20.8813 11.9308 20.6959 11.9968C20.5106 12.0607 20.2964 12.0927 20.0535 12.0927ZM20.4434 11.1531C20.6437 11.1531 20.8206 11.1136 20.974 11.0348C21.1274 10.9538 21.2478 10.8452 21.3351 10.7088C21.4225 10.5724 21.4662 10.418 21.4662 10.2454V9.72443C21.4236 9.75213 21.365 9.7777 21.2904 9.80114C21.218 9.82244 21.1359 9.84268 21.0443 9.86186C20.9527 9.87891 20.8611 9.89489 20.7694 9.9098C20.6778 9.92259 20.5947 9.9343 20.5202 9.94496C20.3604 9.96839 20.2208 10.0057 20.1015 10.0568C19.9822 10.108 19.8895 10.1772 19.8234 10.2646C19.7574 10.3498 19.7243 10.4563 19.7243 10.5842C19.7243 10.7695 19.7915 10.9112 19.9257 11.0092C20.0621 11.1051 20.2346 11.1531 20.4434 11.1531Z" fill="white"/>
</svg>
