<svg width="30" height="17" viewBox="0 0 30 17" fill="none" xmlns="http://www.w3.org/2000/svg">
<rect x="0.5" y="0.5" width="29" height="16" rx="2.5" fill="white"/>
<path d="M9.02801 12.1151C8.71693 12.1151 8.43461 12.0565 8.18106 11.9393C7.92751 11.82 7.72616 11.6484 7.57702 11.4247C7.42787 11.1989 7.35329 10.9261 7.35329 10.6065C7.35329 10.3253 7.40869 10.0973 7.51949 9.92259C7.63028 9.74574 7.77836 9.60724 7.96373 9.5071C8.1491 9.40696 8.35365 9.33239 8.57737 9.28338C8.80322 9.23224 9.03014 9.19176 9.25812 9.16193C9.55642 9.12358 9.79825 9.09482 9.98362 9.07564C10.1711 9.05433 10.3075 9.01918 10.3927 8.97017C10.4801 8.92116 10.5237 8.83594 10.5237 8.71449V8.68892C10.5237 8.37358 10.4375 8.12855 10.2649 7.95384C10.0944 7.77912 9.83554 7.69176 9.48824 7.69176C9.12815 7.69176 8.84584 7.7706 8.64129 7.92827C8.43675 8.08594 8.29292 8.25426 8.20983 8.43324L7.49392 8.17756C7.62176 7.87926 7.79221 7.64702 8.00528 7.48082C8.22048 7.3125 8.45486 7.19531 8.70841 7.12926C8.96409 7.06108 9.21551 7.02699 9.46267 7.02699C9.62034 7.02699 9.80145 7.04616 10.006 7.08452C10.2127 7.12074 10.4119 7.19638 10.6036 7.31143C10.7975 7.42649 10.9584 7.60014 11.0862 7.83239C11.2141 8.06463 11.278 8.37571 11.278 8.76562V12H10.5237V11.3352H10.4854C10.4343 11.4418 10.349 11.5558 10.2297 11.6772C10.1104 11.7987 9.95166 11.902 9.75351 11.9872C9.55535 12.0724 9.31352 12.1151 9.02801 12.1151ZM9.14307 11.4375C9.44136 11.4375 9.69278 11.3789 9.89733 11.2617C10.104 11.1445 10.2595 10.9933 10.3639 10.8079C10.4705 10.6225 10.5237 10.4276 10.5237 10.223V9.53267C10.4918 9.57102 10.4215 9.60618 10.3128 9.63814C10.2063 9.66797 10.0827 9.6946 9.94207 9.71804C9.80358 9.73935 9.66828 9.75852 9.53618 9.77557C9.40621 9.79048 9.30074 9.80327 9.21977 9.81392C9.02375 9.83949 8.84051 9.88104 8.67006 9.93857C8.50173 9.99396 8.36537 10.0781 8.26096 10.1911C8.15869 10.3018 8.10756 10.4531 8.10756 10.6449C8.10756 10.907 8.2045 11.1051 8.39839 11.2393C8.59442 11.3714 8.84264 11.4375 9.14307 11.4375ZM14.5993 12.1151C14.2882 12.1151 14.0059 12.0565 13.7524 11.9393C13.4988 11.82 13.2975 11.6484 13.1483 11.4247C12.9992 11.1989 12.9246 10.9261 12.9246 10.6065C12.9246 10.3253 12.98 10.0973 13.0908 9.92259C13.2016 9.74574 13.3497 9.60724 13.535 9.5071C13.7204 9.40696 13.9249 9.33239 14.1487 9.28338C14.3745 9.23224 14.6014 9.19176 14.8294 9.16193C15.1277 9.12358 15.3695 9.09482 15.5549 9.07564C15.7424 9.05433 15.8788 9.01918 15.964 8.97017C16.0514 8.92116 16.095 8.83594 16.095 8.71449V8.68892C16.095 8.37358 16.0087 8.12855 15.8362 7.95384C15.6657 7.77912 15.4068 7.69176 15.0595 7.69176C14.6994 7.69176 14.4171 7.7706 14.2126 7.92827C14.008 8.08594 13.8642 8.25426 13.7811 8.43324L13.0652 8.17756C13.193 7.87926 13.3635 7.64702 13.5766 7.48082C13.7918 7.3125 14.0261 7.19531 14.2797 7.12926C14.5354 7.06108 14.7868 7.02699 15.034 7.02699C15.1916 7.02699 15.3727 7.04616 15.5773 7.08452C15.784 7.12074 15.9832 7.19638 16.1749 7.31143C16.3688 7.42649 16.5297 7.60014 16.6575 7.83239C16.7854 8.06463 16.8493 8.37571 16.8493 8.76562V12H16.095V11.3352H16.0567C16.0055 11.4418 15.9203 11.5558 15.801 11.6772C15.6817 11.7987 15.5229 11.902 15.3248 11.9872C15.1266 12.0724 14.8848 12.1151 14.5993 12.1151ZM14.7144 11.4375C15.0127 11.4375 15.2641 11.3789 15.4686 11.2617C15.6753 11.1445 15.8308 10.9933 15.9352 10.8079C16.0418 10.6225 16.095 10.4276 16.095 10.223V9.53267C16.0631 9.57102 15.9928 9.60618 15.8841 9.63814C15.7776 9.66797 15.654 9.6946 15.5134 9.71804C15.3749 9.73935 15.2396 9.75852 15.1075 9.77557C14.9775 9.79048 14.872 9.80327 14.7911 9.81392C14.595 9.83949 14.4118 9.88104 14.2413 9.93857C14.073 9.99396 13.9367 10.0781 13.8323 10.1911C13.73 10.3018 13.6788 10.4531 13.6788 10.6449C13.6788 10.907 13.7758 11.1051 13.9697 11.2393C14.1657 11.3714 14.4139 11.4375 14.7144 11.4375ZM20.1706 12.1151C19.8595 12.1151 19.5772 12.0565 19.3236 11.9393C19.0701 11.82 18.8687 11.6484 18.7196 11.4247C18.5704 11.1989 18.4959 10.9261 18.4959 10.6065C18.4959 10.3253 18.5513 10.0973 18.6621 9.92259C18.7729 9.74574 18.9209 9.60724 19.1063 9.5071C19.2917 9.40696 19.4962 9.33239 19.7199 9.28338C19.9458 9.23224 20.1727 9.19176 20.4007 9.16193C20.699 9.12358 20.9408 9.09482 21.1262 9.07564C21.3137 9.05433 21.4501 9.01918 21.5353 8.97017C21.6226 8.92116 21.6663 8.83594 21.6663 8.71449V8.68892C21.6663 8.37358 21.58 8.12855 21.4074 7.95384C21.237 7.77912 20.9781 7.69176 20.6308 7.69176C20.2707 7.69176 19.9884 7.7706 19.7839 7.92827C19.5793 8.08594 19.4355 8.25426 19.3524 8.43324L18.6365 8.17756C18.7643 7.87926 18.9348 7.64702 19.1479 7.48082C19.3631 7.3125 19.5974 7.19531 19.851 7.12926C20.1067 7.06108 20.3581 7.02699 20.6052 7.02699C20.7629 7.02699 20.944 7.04616 21.1486 7.08452C21.3552 7.12074 21.5545 7.19638 21.7462 7.31143C21.9401 7.42649 22.101 7.60014 22.2288 7.83239C22.3567 8.06463 22.4206 8.37571 22.4206 8.76562V12H21.6663V11.3352H21.628C21.5768 11.4418 21.4916 11.5558 21.3723 11.6772C21.253 11.7987 21.0942 11.902 20.8961 11.9872C20.6979 12.0724 20.4561 12.1151 20.1706 12.1151ZM20.2856 11.4375C20.5839 11.4375 20.8354 11.3789 21.0399 11.2617C21.2466 11.1445 21.4021 10.9933 21.5065 10.8079C21.6131 10.6225 21.6663 10.4276 21.6663 10.223V9.53267C21.6344 9.57102 21.5641 9.60618 21.4554 9.63814C21.3489 9.66797 21.2253 9.6946 21.0847 9.71804C20.9462 9.73935 20.8109 9.75852 20.6788 9.77557C20.5488 9.79048 20.4433 9.80327 20.3623 9.81392C20.1663 9.83949 19.9831 9.88104 19.8126 9.93857C19.6443 9.99396 19.5079 10.0781 19.4035 10.1911C19.3013 10.3018 19.2501 10.4531 19.2501 10.6449C19.2501 10.907 19.3471 11.1051 19.541 11.2393C19.737 11.3714 19.9852 11.4375 20.2856 11.4375Z" fill="black"/>
<rect x="0.5" y="0.5" width="29" height="16" rx="2.5" stroke="#B9B9B9"/>
</svg>
