<svg width="30" height="17" viewBox="0 0 30 17" fill="none" xmlns="http://www.w3.org/2000/svg">
<rect x="0.5" y="0.5" width="29" height="16" rx="2.5" fill="white"/>
<path d="M6.43803 12H5.60707L8.01048 5.45455H8.82866L11.2321 12H10.4011L8.44513 6.49006H8.394L6.43803 12ZM6.74485 9.44318H10.0943V10.1463H6.74485V9.44318ZM13.0201 12H12.1891L14.5925 5.45455H15.4107L17.8141 12H16.9831L15.0272 6.49006H14.976L13.0201 12ZM13.3269 9.44318H16.6763V10.1463H13.3269V9.44318ZM19.6021 12H18.7711L21.1745 5.45455H21.9927L24.3961 12H23.5652L21.6092 6.49006H21.5581L19.6021 12ZM19.9089 9.44318H23.2583V10.1463H19.9089V9.44318Z" fill="black"/>
<rect x="0.5" y="0.5" width="29" height="16" rx="2.5" stroke="#B9B9B9"/>
</svg>
