<svg width="30" height="17" viewBox="0 0 30 17" fill="none" xmlns="http://www.w3.org/2000/svg">
<rect x="0.5" y="0.5" width="29" height="16" rx="2.5" fill="white"/>
<path d="M11.8137 12.1151C11.5026 12.1151 11.2203 12.0565 10.9667 11.9393C10.7132 11.82 10.5118 11.6484 10.3627 11.4247C10.2135 11.1989 10.1389 10.9261 10.1389 10.6065C10.1389 10.3253 10.1943 10.0973 10.3051 9.92259C10.4159 9.74574 10.564 9.60724 10.7494 9.5071C10.9347 9.40696 11.1393 9.33239 11.363 9.28338C11.5889 9.23224 11.8158 9.19176 12.0438 9.16193C12.3421 9.12358 12.5839 9.09482 12.7693 9.07564C12.9568 9.05433 13.0931 9.01918 13.1784 8.97017C13.2657 8.92116 13.3094 8.83594 13.3094 8.71449V8.68892C13.3094 8.37358 13.2231 8.12855 13.0505 7.95384C12.8801 7.77912 12.6212 7.69176 12.2739 7.69176C11.9138 7.69176 11.6315 7.7706 11.4269 7.92827C11.2224 8.08594 11.0786 8.25426 10.9955 8.43324L10.2796 8.17756C10.4074 7.87926 10.5779 7.64702 10.7909 7.48082C11.0061 7.3125 11.2405 7.19531 11.4941 7.12926C11.7497 7.06108 12.0012 7.02699 12.2483 7.02699C12.406 7.02699 12.5871 7.04616 12.7916 7.08452C12.9983 7.12074 13.1975 7.19638 13.3893 7.31143C13.5832 7.42649 13.7441 7.60014 13.8719 7.83239C13.9997 8.06463 14.0637 8.37571 14.0637 8.76562V12H13.3094V11.3352H13.271C13.2199 11.4418 13.1347 11.5558 13.0154 11.6772C12.896 11.7987 12.7373 11.902 12.5392 11.9872C12.341 12.0724 12.0992 12.1151 11.8137 12.1151ZM11.9287 11.4375C12.227 11.4375 12.4784 11.3789 12.683 11.2617C12.8896 11.1445 13.0452 10.9933 13.1496 10.8079C13.2561 10.6225 13.3094 10.4276 13.3094 10.223V9.53267C13.2774 9.57102 13.2071 9.60618 13.0985 9.63814C12.9919 9.66797 12.8683 9.6946 12.7277 9.71804C12.5892 9.73935 12.4539 9.75852 12.3218 9.77557C12.1919 9.79048 12.0864 9.80327 12.0054 9.81392C11.8094 9.83949 11.6262 9.88104 11.4557 9.93857C11.2874 9.99396 11.151 10.0781 11.0466 10.1911C10.9443 10.3018 10.8932 10.4531 10.8932 10.6449C10.8932 10.907 10.9901 11.1051 11.184 11.2393C11.3801 11.3714 11.6283 11.4375 11.9287 11.4375ZM17.3849 12.1151C17.0739 12.1151 16.7915 12.0565 16.538 11.9393C16.2844 11.82 16.0831 11.6484 15.9339 11.4247C15.7848 11.1989 15.7102 10.9261 15.7102 10.6065C15.7102 10.3253 15.7656 10.0973 15.8764 9.92259C15.9872 9.74574 16.1353 9.60724 16.3207 9.5071C16.506 9.40696 16.7106 9.33239 16.9343 9.28338C17.1602 9.23224 17.3871 9.19176 17.6151 9.16193C17.9134 9.12358 18.1552 9.09482 18.3406 9.07564C18.5281 9.05433 18.6644 9.01918 18.7496 8.97017C18.837 8.92116 18.8807 8.83594 18.8807 8.71449V8.68892C18.8807 8.37358 18.7944 8.12855 18.6218 7.95384C18.4513 7.77912 18.1925 7.69176 17.8452 7.69176C17.4851 7.69176 17.2028 7.7706 16.9982 7.92827C16.7937 8.08594 16.6499 8.25426 16.5668 8.43324L15.8509 8.17756C15.9787 7.87926 16.1491 7.64702 16.3622 7.48082C16.5774 7.3125 16.8118 7.19531 17.0653 7.12926C17.321 7.06108 17.5724 7.02699 17.8196 7.02699C17.9773 7.02699 18.1584 7.04616 18.3629 7.08452C18.5696 7.12074 18.7688 7.19638 18.9606 7.31143C19.1545 7.42649 19.3153 7.60014 19.4432 7.83239C19.571 8.06463 19.6349 8.37571 19.6349 8.76562V12H18.8807V11.3352H18.8423C18.7912 11.4418 18.706 11.5558 18.5866 11.6772C18.4673 11.7987 18.3086 11.902 18.1104 11.9872C17.9123 12.0724 17.6705 12.1151 17.3849 12.1151ZM17.5 11.4375C17.7983 11.4375 18.0497 11.3789 18.2543 11.2617C18.4609 11.1445 18.6165 10.9933 18.7209 10.8079C18.8274 10.6225 18.8807 10.4276 18.8807 10.223V9.53267C18.8487 9.57102 18.7784 9.60618 18.6697 9.63814C18.5632 9.66797 18.4396 9.6946 18.299 9.71804C18.1605 9.73935 18.0252 9.75852 17.8931 9.77557C17.7631 9.79048 17.6577 9.80327 17.5767 9.81392C17.3807 9.83949 17.1974 9.88104 17.027 9.93857C16.8587 9.99396 16.7223 10.0781 16.6179 10.1911C16.5156 10.3018 16.4645 10.4531 16.4645 10.6449C16.4645 10.907 16.5614 11.1051 16.7553 11.2393C16.9513 11.3714 17.1996 11.4375 17.5 11.4375Z" fill="black"/>
<rect x="0.5" y="0.5" width="29" height="16" rx="2.5" stroke="#B9B9B9"/>
</svg>
