<svg width="30" height="17" viewBox="0 0 30 17" fill="none" xmlns="http://www.w3.org/2000/svg">
<rect width="30" height="17" rx="3" fill="black"/>
<path d="M11.4725 12.0927C11.1593 12.0927 10.8801 12.0384 10.6351 11.9297C10.3901 11.8189 10.1962 11.6559 10.0534 11.4407C9.91282 11.2234 9.84251 10.9528 9.84251 10.6289C9.84251 10.3562 9.89258 10.1271 9.99272 9.94176C10.0929 9.75639 10.2292 9.60724 10.4018 9.49432C10.5744 9.38139 10.7704 9.29616 10.9899 9.23864C11.2115 9.18111 11.4437 9.14062 11.6866 9.11719C11.9721 9.08736 12.2022 9.05966 12.377 9.03409C12.5517 9.00639 12.6784 8.96591 12.7573 8.91264C12.8361 8.85937 12.8755 8.78054 12.8755 8.67614V8.65696C12.8755 8.45455 12.8116 8.29794 12.6838 8.18714C12.5581 8.07635 12.3791 8.02095 12.1468 8.02095C11.9018 8.02095 11.7069 8.07528 11.562 8.18395C11.4171 8.29048 11.3212 8.42472 11.2743 8.58665L10.0151 8.48438C10.079 8.18608 10.2047 7.92827 10.3922 7.71094C10.5797 7.49148 10.8216 7.32315 11.1177 7.20597C11.416 7.08665 11.7612 7.02699 12.1532 7.02699C12.426 7.02699 12.687 7.05895 12.9363 7.12287C13.1877 7.18679 13.4103 7.28587 13.6042 7.4201C13.8002 7.55433 13.9547 7.72692 14.0676 7.93786C14.1806 8.14666 14.237 8.39702 14.237 8.68892V12H12.9458V11.3192H12.9075C12.8287 11.4727 12.7232 11.608 12.5911 11.7251C12.459 11.8402 12.3002 11.9308 12.1149 11.9968C11.9295 12.0607 11.7154 12.0927 11.4725 12.0927ZM11.8624 11.1531C12.0627 11.1531 12.2395 11.1136 12.3929 11.0348C12.5463 10.9538 12.6667 10.8452 12.7541 10.7088C12.8414 10.5724 12.8851 10.418 12.8851 10.2454V9.72443C12.8425 9.75213 12.7839 9.7777 12.7093 9.80114C12.6369 9.82244 12.5549 9.84268 12.4632 9.86186C12.3716 9.87891 12.28 9.89489 12.1884 9.9098C12.0968 9.92259 12.0137 9.9343 11.9391 9.94496C11.7793 9.96839 11.6397 10.0057 11.5204 10.0568C11.4011 10.108 11.3084 10.1772 11.2424 10.2646C11.1763 10.3498 11.1433 10.4563 11.1433 10.5842C11.1433 10.7695 11.2104 10.9112 11.3446 11.0092C11.481 11.1051 11.6536 11.1531 11.8624 11.1531ZM17.1932 12.0927C16.88 12.0927 16.6009 12.0384 16.3558 11.9297C16.1108 11.8189 15.9169 11.6559 15.7741 11.4407C15.6335 11.2234 15.5632 10.9528 15.5632 10.6289C15.5632 10.3562 15.6133 10.1271 15.7134 9.94176C15.8136 9.75639 15.9499 9.60724 16.1225 9.49432C16.2951 9.38139 16.4911 9.29616 16.7106 9.23864C16.9322 9.18111 17.1644 9.14062 17.4073 9.11719C17.6928 9.08736 17.9229 9.05966 18.0977 9.03409C18.2724 9.00639 18.3991 8.96591 18.478 8.91264C18.5568 8.85937 18.5962 8.78054 18.5962 8.67614V8.65696C18.5962 8.45455 18.5323 8.29794 18.4045 8.18714C18.2788 8.07635 18.0998 8.02095 17.8675 8.02095C17.6225 8.02095 17.4276 8.07528 17.2827 8.18395C17.1378 8.29048 17.0419 8.42472 16.995 8.58665L15.7358 8.48438C15.7997 8.18608 15.9254 7.92827 16.1129 7.71094C16.3004 7.49148 16.5423 7.32315 16.8384 7.20597C17.1367 7.08665 17.4819 7.02699 17.8739 7.02699C18.1467 7.02699 18.4077 7.05895 18.657 7.12287C18.9084 7.18679 19.131 7.28587 19.3249 7.4201C19.521 7.55433 19.6754 7.72692 19.7884 7.93786C19.9013 8.14666 19.9577 8.39702 19.9577 8.68892V12H18.6665V11.3192H18.6282C18.5494 11.4727 18.4439 11.608 18.3118 11.7251C18.1797 11.8402 18.021 11.9308 17.8356 11.9968C17.6502 12.0607 17.4361 12.0927 17.1932 12.0927ZM17.5831 11.1531C17.7834 11.1531 17.9602 11.1136 18.1136 11.0348C18.267 10.9538 18.3874 10.8452 18.4748 10.7088C18.5621 10.5724 18.6058 10.418 18.6058 10.2454V9.72443C18.5632 9.75213 18.5046 9.7777 18.43 9.80114C18.3576 9.82244 18.2756 9.84268 18.1839 9.86186C18.0923 9.87891 18.0007 9.89489 17.9091 9.9098C17.8175 9.92259 17.7344 9.9343 17.6598 9.94496C17.5 9.96839 17.3604 10.0057 17.2411 10.0568C17.1218 10.108 17.0291 10.1772 16.9631 10.2646C16.897 10.3498 16.864 10.4563 16.864 10.5842C16.864 10.7695 16.9311 10.9112 17.0653 11.0092C17.2017 11.1051 17.3743 11.1531 17.5831 11.1531Z" fill="white"/>
</svg>
