<svg width="32" height="16" viewBox="0 0 32 16" fill="none" xmlns="http://www.w3.org/2000/svg">
<rect width="32" height="16" fill="black"/>
<path d="M6.16495 12H4.51722L7.02788 4.72727H9.00941L11.5165 12H9.86879L8.04705 6.3892H7.99023L6.16495 12ZM6.06197 9.14134H9.95401V10.3416H6.06197V9.14134ZM14.1454 12H12.4977L15.0083 4.72727H16.9899L19.497 12H17.8493L16.0275 6.3892H15.9707L14.1454 12ZM14.0424 9.14134H17.9345V10.3416H14.0424V9.14134ZM22.1259 12H20.4782L22.9888 4.72727H24.9703L27.4775 12H25.8297L24.008 6.3892H23.9512L22.1259 12ZM22.0229 9.14134H25.915V10.3416H22.0229V9.14134Z" fill="white"/>
</svg>
