<svg width="32" height="15" viewBox="0 0 32 15" fill="none" xmlns="http://www.w3.org/2000/svg">
<rect width="32" height="15" fill="black"/>
<path d="M9.61213 11.0927C9.29892 11.0927 9.0198 11.0384 8.77477 10.9297C8.52974 10.8189 8.33585 10.6559 8.19309 10.4407C8.05247 10.2234 7.98216 9.95277 7.98216 9.62891C7.98216 9.35618 8.03223 9.12713 8.13237 8.94176C8.23251 8.75639 8.36887 8.60724 8.54146 8.49432C8.71404 8.38139 8.91007 8.29616 9.12953 8.23864C9.35112 8.18111 9.58336 8.14062 9.82626 8.11719C10.1118 8.08736 10.3419 8.05966 10.5166 8.03409C10.6913 8.00639 10.8181 7.96591 10.8969 7.91264C10.9758 7.85937 11.0152 7.78054 11.0152 7.67614V7.65696C11.0152 7.45455 10.9513 7.29794 10.8234 7.18714C10.6977 7.07635 10.5187 7.02095 10.2865 7.02095C10.0415 7.02095 9.8465 7.07528 9.70162 7.18395C9.55673 7.29048 9.46085 7.42472 9.41397 7.58665L8.15474 7.48438C8.21866 7.18608 8.34437 6.92827 8.53187 6.71094C8.71937 6.49148 8.9612 6.32315 9.25737 6.20597C9.55566 6.08665 9.90083 6.02699 10.2929 6.02699C10.5656 6.02699 10.8266 6.05895 11.0759 6.12287C11.3273 6.18679 11.55 6.28587 11.7439 6.4201C11.9399 6.55433 12.0944 6.72692 12.2073 6.93786C12.3202 7.14666 12.3767 7.39702 12.3767 7.68892V11H11.0855V10.3192H11.0471C10.9683 10.4727 10.8628 10.608 10.7307 10.7251C10.5986 10.8402 10.4399 10.9308 10.2545 10.9968C10.0692 11.0607 9.85502 11.0927 9.61213 11.0927ZM10.002 10.1531C10.2023 10.1531 10.3792 10.1136 10.5326 10.0348C10.686 9.95384 10.8064 9.84517 10.8937 9.70881C10.9811 9.57244 11.0248 9.41797 11.0248 9.24538V8.72443C10.9822 8.75213 10.9236 8.7777 10.849 8.80114C10.7765 8.82244 10.6945 8.84268 10.6029 8.86186C10.5113 8.87891 10.4197 8.89489 10.328 8.9098C10.2364 8.92259 10.1533 8.9343 10.0787 8.94496C9.91895 8.96839 9.77939 9.00568 9.66007 9.05682C9.54075 9.10795 9.44806 9.1772 9.38201 9.26456C9.31596 9.34979 9.28294 9.45632 9.28294 9.58416C9.28294 9.76953 9.35005 9.91122 9.48429 10.0092C9.62065 10.1051 9.79324 10.1531 10.002 10.1531ZM15.3328 11.0927C15.0196 11.0927 14.7405 11.0384 14.4955 10.9297C14.2504 10.8189 14.0566 10.6559 13.9138 10.4407C13.7732 10.2234 13.7029 9.95277 13.7029 9.62891C13.7029 9.35618 13.7529 9.12713 13.8531 8.94176C13.9532 8.75639 14.0896 8.60724 14.2622 8.49432C14.4347 8.38139 14.6308 8.29616 14.8502 8.23864C15.0718 8.18111 15.3041 8.14062 15.547 8.11719C15.8325 8.08736 16.0626 8.05966 16.2373 8.03409C16.412 8.00639 16.5388 7.96591 16.6176 7.91264C16.6965 7.85937 16.7359 7.78054 16.7359 7.67614V7.65696C16.7359 7.45455 16.672 7.29794 16.5441 7.18714C16.4184 7.07635 16.2394 7.02095 16.0072 7.02095C15.7622 7.02095 15.5672 7.07528 15.4223 7.18395C15.2774 7.29048 15.1816 7.42472 15.1347 7.58665L13.8754 7.48438C13.9394 7.18608 14.0651 6.92827 14.2526 6.71094C14.4401 6.49148 14.6819 6.32315 14.9781 6.20597C15.2764 6.08665 15.6215 6.02699 16.0136 6.02699C16.2863 6.02699 16.5473 6.05895 16.7966 6.12287C17.048 6.18679 17.2707 6.28587 17.4646 6.4201C17.6606 6.55433 17.8151 6.72692 17.928 6.93786C18.0409 7.14666 18.0974 7.39702 18.0974 7.68892V11H16.8062V10.3192H16.7678C16.689 10.4727 16.5835 10.608 16.4514 10.7251C16.3193 10.8402 16.1606 10.9308 15.9752 10.9968C15.7899 11.0607 15.5757 11.0927 15.3328 11.0927ZM15.7227 10.1531C15.923 10.1531 16.0999 10.1136 16.2533 10.0348C16.4067 9.95384 16.5271 9.84517 16.6144 9.70881C16.7018 9.57244 16.7455 9.41797 16.7455 9.24538V8.72443C16.7029 8.75213 16.6443 8.7777 16.5697 8.80114C16.4972 8.82244 16.4152 8.84268 16.3236 8.86186C16.232 8.87891 16.1404 8.89489 16.0487 8.9098C15.9571 8.92259 15.874 8.9343 15.7994 8.94496C15.6396 8.96839 15.5001 9.00568 15.3808 9.05682C15.2615 9.10795 15.1688 9.1772 15.1027 9.26456C15.0367 9.34979 15.0036 9.45632 15.0036 9.58416C15.0036 9.76953 15.0708 9.91122 15.205 10.0092C15.3414 10.1051 15.5139 10.1531 15.7227 10.1531ZM21.0535 11.0927C20.7403 11.0927 20.4612 11.0384 20.2162 10.9297C19.9711 10.8189 19.7773 10.6559 19.6345 10.4407C19.4939 10.2234 19.4236 9.95277 19.4236 9.62891C19.4236 9.35618 19.4736 9.12713 19.5738 8.94176C19.6739 8.75639 19.8103 8.60724 19.9829 8.49432C20.1555 8.38139 20.3515 8.29616 20.5709 8.23864C20.7925 8.18111 21.0248 8.14062 21.2677 8.11719C21.5532 8.08736 21.7833 8.05966 21.958 8.03409C22.1327 8.00639 22.2595 7.96591 22.3383 7.91264C22.4172 7.85937 22.4566 7.78054 22.4566 7.67614V7.65696C22.4566 7.45455 22.3927 7.29794 22.2648 7.18714C22.1391 7.07635 21.9601 7.02095 21.7279 7.02095C21.4829 7.02095 21.2879 7.07528 21.143 7.18395C20.9981 7.29048 20.9023 7.42472 20.8554 7.58665L19.5961 7.48438C19.6601 7.18608 19.7858 6.92827 19.9733 6.71094C20.1608 6.49148 20.4026 6.32315 20.6988 6.20597C20.9971 6.08665 21.3422 6.02699 21.7343 6.02699C22.007 6.02699 22.268 6.05895 22.5173 6.12287C22.7687 6.18679 22.9914 6.28587 23.1853 6.4201C23.3813 6.55433 23.5358 6.72692 23.6487 6.93786C23.7616 7.14666 23.8181 7.39702 23.8181 7.68892V11H22.5269V10.3192H22.4885C22.4097 10.4727 22.3042 10.608 22.1721 10.7251C22.04 10.8402 21.8813 10.9308 21.6959 10.9968C21.5106 11.0607 21.2964 11.0927 21.0535 11.0927ZM21.4434 10.1531C21.6437 10.1531 21.8206 10.1136 21.974 10.0348C22.1274 9.95384 22.2478 9.84517 22.3351 9.70881C22.4225 9.57244 22.4662 9.41797 22.4662 9.24538V8.72443C22.4236 8.75213 22.365 8.7777 22.2904 8.80114C22.218 8.82244 22.1359 8.84268 22.0443 8.86186C21.9527 8.87891 21.8611 8.89489 21.7694 8.9098C21.6778 8.92259 21.5947 8.9343 21.5202 8.94496C21.3604 8.96839 21.2208 9.00568 21.1015 9.05682C20.9822 9.10795 20.8895 9.1772 20.8234 9.26456C20.7574 9.34979 20.7243 9.45632 20.7243 9.58416C20.7243 9.76953 20.7915 9.91122 20.9257 10.0092C21.0621 10.1051 21.2346 10.1531 21.4434 10.1531Z" fill="white"/>
</svg>
