<svg width="32" height="15" viewBox="0 0 32 15" fill="none" xmlns="http://www.w3.org/2000/svg">
<rect width="32" height="15" fill="black"/>
<path d="M12.4725 11.0927C12.1593 11.0927 11.8801 11.0384 11.6351 10.9297C11.3901 10.8189 11.1962 10.6559 11.0534 10.4407C10.9128 10.2234 10.8425 9.95277 10.8425 9.62891C10.8425 9.35618 10.8926 9.12713 10.9927 8.94176C11.0929 8.75639 11.2292 8.60724 11.4018 8.49432C11.5744 8.38139 11.7704 8.29616 11.9899 8.23864C12.2115 8.18111 12.4437 8.14062 12.6866 8.11719C12.9721 8.08736 13.2022 8.05966 13.377 8.03409C13.5517 8.00639 13.6784 7.96591 13.7573 7.91264C13.8361 7.85937 13.8755 7.78054 13.8755 7.67614V7.65696C13.8755 7.45455 13.8116 7.29794 13.6838 7.18714C13.5581 7.07635 13.3791 7.02095 13.1468 7.02095C12.9018 7.02095 12.7069 7.07528 12.562 7.18395C12.4171 7.29048 12.3212 7.42472 12.2743 7.58665L11.0151 7.48438C11.079 7.18608 11.2047 6.92827 11.3922 6.71094C11.5797 6.49148 11.8216 6.32315 12.1177 6.20597C12.416 6.08665 12.7612 6.02699 13.1532 6.02699C13.426 6.02699 13.687 6.05895 13.9363 6.12287C14.1877 6.18679 14.4103 6.28587 14.6042 6.4201C14.8002 6.55433 14.9547 6.72692 15.0676 6.93786C15.1806 7.14666 15.237 7.39702 15.237 7.68892V11H13.9458V10.3192H13.9075C13.8287 10.4727 13.7232 10.608 13.5911 10.7251C13.459 10.8402 13.3002 10.9308 13.1149 10.9968C12.9295 11.0607 12.7154 11.0927 12.4725 11.0927ZM12.8624 10.1531C13.0627 10.1531 13.2395 10.1136 13.3929 10.0348C13.5463 9.95384 13.6667 9.84517 13.7541 9.70881C13.8414 9.57244 13.8851 9.41797 13.8851 9.24538V8.72443C13.8425 8.75213 13.7839 8.7777 13.7093 8.80114C13.6369 8.82244 13.5549 8.84268 13.4632 8.86186C13.3716 8.87891 13.28 8.89489 13.1884 8.9098C13.0968 8.92259 13.0137 8.9343 12.9391 8.94496C12.7793 8.96839 12.6397 9.00568 12.5204 9.05682C12.4011 9.10795 12.3084 9.1772 12.2424 9.26456C12.1763 9.34979 12.1433 9.45632 12.1433 9.58416C12.1433 9.76953 12.2104 9.91122 12.3446 10.0092C12.481 10.1051 12.6536 10.1531 12.8624 10.1531ZM18.1932 11.0927C17.88 11.0927 17.6009 11.0384 17.3558 10.9297C17.1108 10.8189 16.9169 10.6559 16.7741 10.4407C16.6335 10.2234 16.5632 9.95277 16.5632 9.62891C16.5632 9.35618 16.6133 9.12713 16.7134 8.94176C16.8136 8.75639 16.9499 8.60724 17.1225 8.49432C17.2951 8.38139 17.4911 8.29616 17.7106 8.23864C17.9322 8.18111 18.1644 8.14062 18.4073 8.11719C18.6928 8.08736 18.9229 8.05966 19.0977 8.03409C19.2724 8.00639 19.3991 7.96591 19.478 7.91264C19.5568 7.85937 19.5962 7.78054 19.5962 7.67614V7.65696C19.5962 7.45455 19.5323 7.29794 19.4045 7.18714C19.2788 7.07635 19.0998 7.02095 18.8675 7.02095C18.6225 7.02095 18.4276 7.07528 18.2827 7.18395C18.1378 7.29048 18.0419 7.42472 17.995 7.58665L16.7358 7.48438C16.7997 7.18608 16.9254 6.92827 17.1129 6.71094C17.3004 6.49148 17.5423 6.32315 17.8384 6.20597C18.1367 6.08665 18.4819 6.02699 18.8739 6.02699C19.1467 6.02699 19.4077 6.05895 19.657 6.12287C19.9084 6.18679 20.131 6.28587 20.3249 6.4201C20.521 6.55433 20.6754 6.72692 20.7884 6.93786C20.9013 7.14666 20.9577 7.39702 20.9577 7.68892V11H19.6665V10.3192H19.6282C19.5494 10.4727 19.4439 10.608 19.3118 10.7251C19.1797 10.8402 19.021 10.9308 18.8356 10.9968C18.6502 11.0607 18.4361 11.0927 18.1932 11.0927ZM18.5831 10.1531C18.7834 10.1531 18.9602 10.1136 19.1136 10.0348C19.267 9.95384 19.3874 9.84517 19.4748 9.70881C19.5621 9.57244 19.6058 9.41797 19.6058 9.24538V8.72443C19.5632 8.75213 19.5046 8.7777 19.43 8.80114C19.3576 8.82244 19.2756 8.84268 19.1839 8.86186C19.0923 8.87891 19.0007 8.89489 18.9091 8.9098C18.8175 8.92259 18.7344 8.9343 18.6598 8.94496C18.5 8.96839 18.3604 9.00568 18.2411 9.05682C18.1218 9.10795 18.0291 9.1772 17.9631 9.26456C17.897 9.34979 17.864 9.45632 17.864 9.58416C17.864 9.76953 17.9311 9.91122 18.0653 10.0092C18.2017 10.1051 18.3743 10.1531 18.5831 10.1531Z" fill="white"/>
</svg>
