<svg width="32" height="15" viewBox="0 0 32 15" fill="none" xmlns="http://www.w3.org/2000/svg">
<rect width="32" height="15" fill="white"/>
<path d="M12.8137 11.1151C12.5026 11.1151 12.2203 11.0565 11.9667 10.9393C11.7132 10.82 11.5118 10.6484 11.3627 10.4247C11.2135 10.1989 11.1389 9.92614 11.1389 9.60653C11.1389 9.32528 11.1943 9.0973 11.3051 8.92259C11.4159 8.74574 11.564 8.60724 11.7494 8.5071C11.9347 8.40696 12.1393 8.33239 12.363 8.28338C12.5889 8.23224 12.8158 8.19176 13.0438 8.16193C13.3421 8.12358 13.5839 8.09482 13.7693 8.07564C13.9568 8.05433 14.0931 8.01918 14.1784 7.97017C14.2657 7.92116 14.3094 7.83594 14.3094 7.71449V7.68892C14.3094 7.37358 14.2231 7.12855 14.0505 6.95384C13.8801 6.77912 13.6212 6.69176 13.2739 6.69176C12.9138 6.69176 12.6315 6.7706 12.4269 6.92827C12.2224 7.08594 12.0786 7.25426 11.9955 7.43324L11.2796 7.17756C11.4074 6.87926 11.5779 6.64702 11.7909 6.48082C12.0061 6.3125 12.2405 6.19531 12.4941 6.12926C12.7497 6.06108 13.0012 6.02699 13.2483 6.02699C13.406 6.02699 13.5871 6.04616 13.7916 6.08452C13.9983 6.12074 14.1975 6.19638 14.3893 6.31143C14.5832 6.42649 14.7441 6.60014 14.8719 6.83239C14.9997 7.06463 15.0637 7.37571 15.0637 7.76562V11H14.3094V10.3352H14.271C14.2199 10.4418 14.1347 10.5558 14.0154 10.6772C13.896 10.7987 13.7373 10.902 13.5392 10.9872C13.341 11.0724 13.0992 11.1151 12.8137 11.1151ZM12.9287 10.4375C13.227 10.4375 13.4784 10.3789 13.683 10.2617C13.8896 10.1445 14.0452 9.99325 14.1496 9.80788C14.2561 9.62251 14.3094 9.42756 14.3094 9.22301V8.53267C14.2774 8.57102 14.2071 8.60618 14.0985 8.63814C13.9919 8.66797 13.8683 8.6946 13.7277 8.71804C13.5892 8.73935 13.4539 8.75852 13.3218 8.77557C13.1919 8.79048 13.0864 8.80327 13.0054 8.81392C12.8094 8.83949 12.6262 8.88104 12.4557 8.93857C12.2874 8.99396 12.151 9.07812 12.0466 9.19105C11.9443 9.30185 11.8932 9.45312 11.8932 9.64489C11.8932 9.90696 11.9901 10.1051 12.184 10.2393C12.3801 10.3714 12.6283 10.4375 12.9287 10.4375ZM18.3849 11.1151C18.0739 11.1151 17.7915 11.0565 17.538 10.9393C17.2844 10.82 17.0831 10.6484 16.9339 10.4247C16.7848 10.1989 16.7102 9.92614 16.7102 9.60653C16.7102 9.32528 16.7656 9.0973 16.8764 8.92259C16.9872 8.74574 17.1353 8.60724 17.3207 8.5071C17.506 8.40696 17.7106 8.33239 17.9343 8.28338C18.1602 8.23224 18.3871 8.19176 18.6151 8.16193C18.9134 8.12358 19.1552 8.09482 19.3406 8.07564C19.5281 8.05433 19.6644 8.01918 19.7496 7.97017C19.837 7.92116 19.8807 7.83594 19.8807 7.71449V7.68892C19.8807 7.37358 19.7944 7.12855 19.6218 6.95384C19.4513 6.77912 19.1925 6.69176 18.8452 6.69176C18.4851 6.69176 18.2028 6.7706 17.9982 6.92827C17.7937 7.08594 17.6499 7.25426 17.5668 7.43324L16.8509 7.17756C16.9787 6.87926 17.1491 6.64702 17.3622 6.48082C17.5774 6.3125 17.8118 6.19531 18.0653 6.12926C18.321 6.06108 18.5724 6.02699 18.8196 6.02699C18.9773 6.02699 19.1584 6.04616 19.3629 6.08452C19.5696 6.12074 19.7688 6.19638 19.9606 6.31143C20.1545 6.42649 20.3153 6.60014 20.4432 6.83239C20.571 7.06463 20.6349 7.37571 20.6349 7.76562V11H19.8807V10.3352H19.8423C19.7912 10.4418 19.706 10.5558 19.5866 10.6772C19.4673 10.7987 19.3086 10.902 19.1104 10.9872C18.9123 11.0724 18.6705 11.1151 18.3849 11.1151ZM18.5 10.4375C18.7983 10.4375 19.0497 10.3789 19.2543 10.2617C19.4609 10.1445 19.6165 9.99325 19.7209 9.80788C19.8274 9.62251 19.8807 9.42756 19.8807 9.22301V8.53267C19.8487 8.57102 19.7784 8.60618 19.6697 8.63814C19.5632 8.66797 19.4396 8.6946 19.299 8.71804C19.1605 8.73935 19.0252 8.75852 18.8931 8.77557C18.7631 8.79048 18.6577 8.80327 18.5767 8.81392C18.3807 8.83949 18.1974 8.88104 18.027 8.93857C17.8587 8.99396 17.7223 9.07812 17.6179 9.19105C17.5156 9.30185 17.4645 9.45312 17.4645 9.64489C17.4645 9.90696 17.5614 10.1051 17.7553 10.2393C17.9513 10.3714 18.1996 10.4375 18.5 10.4375Z" fill="black"/>
</svg>
