<svg width="32" height="15" viewBox="0 0 32 15" fill="none" xmlns="http://www.w3.org/2000/svg">
<rect width="32" height="15" fill="white"/>
<path d="M7.43803 11H6.60707L9.01048 4.45455H9.82866L12.2321 11H11.4011L9.44513 5.49006H9.394L7.43803 11ZM7.74485 8.44318H11.0943V9.14631H7.74485V8.44318ZM14.0201 11H13.1891L15.5925 4.45455H16.4107L18.8141 11H17.9831L16.0272 5.49006H15.976L14.0201 11ZM14.3269 8.44318H17.6763V9.14631H14.3269V8.44318ZM20.6021 11H19.7711L22.1745 4.45455H22.9927L25.3961 11H24.5652L22.6092 5.49006H22.5581L20.6021 11ZM20.9089 8.44318H24.2583V9.14631H20.9089V8.44318Z" fill="black"/>
</svg>
