<svg width="32" height="15" viewBox="0 0 32 15" fill="none" xmlns="http://www.w3.org/2000/svg">
<rect width="32" height="15" fill="white"/>
<path d="M10.028 11.1151C9.71693 11.1151 9.43461 11.0565 9.18106 10.9393C8.92751 10.82 8.72616 10.6484 8.57702 10.4247C8.42787 10.1989 8.35329 9.92614 8.35329 9.60653C8.35329 9.32528 8.40869 9.0973 8.51949 8.92259C8.63028 8.74574 8.77836 8.60724 8.96373 8.5071C9.1491 8.40696 9.35365 8.33239 9.57737 8.28338C9.80322 8.23224 10.0301 8.19176 10.2581 8.16193C10.5564 8.12358 10.7983 8.09482 10.9836 8.07564C11.1711 8.05433 11.3075 8.01918 11.3927 7.97017C11.4801 7.92116 11.5237 7.83594 11.5237 7.71449V7.68892C11.5237 7.37358 11.4375 7.12855 11.2649 6.95384C11.0944 6.77912 10.8355 6.69176 10.4882 6.69176C10.1282 6.69176 9.84584 6.7706 9.64129 6.92827C9.43675 7.08594 9.29292 7.25426 9.20983 7.43324L8.49392 7.17756C8.62176 6.87926 8.79221 6.64702 9.00528 6.48082C9.22048 6.3125 9.45486 6.19531 9.70841 6.12926C9.96409 6.06108 10.2155 6.02699 10.4627 6.02699C10.6203 6.02699 10.8014 6.04616 11.006 6.08452C11.2127 6.12074 11.4119 6.19638 11.6036 6.31143C11.7975 6.42649 11.9584 6.60014 12.0862 6.83239C12.2141 7.06463 12.278 7.37571 12.278 7.76562V11H11.5237V10.3352H11.4854C11.4343 10.4418 11.349 10.5558 11.2297 10.6772C11.1104 10.7987 10.9517 10.902 10.7535 10.9872C10.5554 11.0724 10.3135 11.1151 10.028 11.1151ZM10.1431 10.4375C10.4414 10.4375 10.6928 10.3789 10.8973 10.2617C11.104 10.1445 11.2595 9.99325 11.3639 9.80788C11.4705 9.62251 11.5237 9.42756 11.5237 9.22301V8.53267C11.4918 8.57102 11.4215 8.60618 11.3128 8.63814C11.2063 8.66797 11.0827 8.6946 10.9421 8.71804C10.8036 8.73935 10.6683 8.75852 10.5362 8.77557C10.4062 8.79048 10.3007 8.80327 10.2198 8.81392C10.0237 8.83949 9.84051 8.88104 9.67006 8.93857C9.50173 8.99396 9.36537 9.07812 9.26096 9.19105C9.15869 9.30185 9.10756 9.45312 9.10756 9.64489C9.10756 9.90696 9.2045 10.1051 9.39839 10.2393C9.59442 10.3714 9.84264 10.4375 10.1431 10.4375ZM15.5993 11.1151C15.2882 11.1151 15.0059 11.0565 14.7524 10.9393C14.4988 10.82 14.2975 10.6484 14.1483 10.4247C13.9992 10.1989 13.9246 9.92614 13.9246 9.60653C13.9246 9.32528 13.98 9.0973 14.0908 8.92259C14.2016 8.74574 14.3497 8.60724 14.535 8.5071C14.7204 8.40696 14.9249 8.33239 15.1487 8.28338C15.3745 8.23224 15.6014 8.19176 15.8294 8.16193C16.1277 8.12358 16.3695 8.09482 16.5549 8.07564C16.7424 8.05433 16.8788 8.01918 16.964 7.97017C17.0514 7.92116 17.095 7.83594 17.095 7.71449V7.68892C17.095 7.37358 17.0087 7.12855 16.8362 6.95384C16.6657 6.77912 16.4068 6.69176 16.0595 6.69176C15.6994 6.69176 15.4171 6.7706 15.2126 6.92827C15.008 7.08594 14.8642 7.25426 14.7811 7.43324L14.0652 7.17756C14.193 6.87926 14.3635 6.64702 14.5766 6.48082C14.7918 6.3125 15.0261 6.19531 15.2797 6.12926C15.5354 6.06108 15.7868 6.02699 16.034 6.02699C16.1916 6.02699 16.3727 6.04616 16.5773 6.08452C16.784 6.12074 16.9832 6.19638 17.1749 6.31143C17.3688 6.42649 17.5297 6.60014 17.6575 6.83239C17.7854 7.06463 17.8493 7.37571 17.8493 7.76562V11H17.095V10.3352H17.0567C17.0055 10.4418 16.9203 10.5558 16.801 10.6772C16.6817 10.7987 16.5229 10.902 16.3248 10.9872C16.1266 11.0724 15.8848 11.1151 15.5993 11.1151ZM15.7144 10.4375C16.0127 10.4375 16.2641 10.3789 16.4686 10.2617C16.6753 10.1445 16.8308 9.99325 16.9352 9.80788C17.0418 9.62251 17.095 9.42756 17.095 9.22301V8.53267C17.0631 8.57102 16.9928 8.60618 16.8841 8.63814C16.7776 8.66797 16.654 8.6946 16.5134 8.71804C16.3749 8.73935 16.2396 8.75852 16.1075 8.77557C15.9775 8.79048 15.872 8.80327 15.7911 8.81392C15.595 8.83949 15.4118 8.88104 15.2413 8.93857C15.073 8.99396 14.9367 9.07812 14.8323 9.19105C14.73 9.30185 14.6788 9.45312 14.6788 9.64489C14.6788 9.90696 14.7758 10.1051 14.9697 10.2393C15.1657 10.3714 15.4139 10.4375 15.7144 10.4375ZM21.1706 11.1151C20.8595 11.1151 20.5772 11.0565 20.3236 10.9393C20.0701 10.82 19.8687 10.6484 19.7196 10.4247C19.5704 10.1989 19.4959 9.92614 19.4959 9.60653C19.4959 9.32528 19.5513 9.0973 19.6621 8.92259C19.7729 8.74574 19.9209 8.60724 20.1063 8.5071C20.2917 8.40696 20.4962 8.33239 20.7199 8.28338C20.9458 8.23224 21.1727 8.19176 21.4007 8.16193C21.699 8.12358 21.9408 8.09482 22.1262 8.07564C22.3137 8.05433 22.4501 8.01918 22.5353 7.97017C22.6226 7.92116 22.6663 7.83594 22.6663 7.71449V7.68892C22.6663 7.37358 22.58 7.12855 22.4074 6.95384C22.237 6.77912 21.9781 6.69176 21.6308 6.69176C21.2707 6.69176 20.9884 6.7706 20.7839 6.92827C20.5793 7.08594 20.4355 7.25426 20.3524 7.43324L19.6365 7.17756C19.7643 6.87926 19.9348 6.64702 20.1479 6.48082C20.3631 6.3125 20.5974 6.19531 20.851 6.12926C21.1067 6.06108 21.3581 6.02699 21.6052 6.02699C21.7629 6.02699 21.944 6.04616 22.1486 6.08452C22.3552 6.12074 22.5545 6.19638 22.7462 6.31143C22.9401 6.42649 23.101 6.60014 23.2288 6.83239C23.3567 7.06463 23.4206 7.37571 23.4206 7.76562V11H22.6663V10.3352H22.628C22.5768 10.4418 22.4916 10.5558 22.3723 10.6772C22.253 10.7987 22.0942 10.902 21.8961 10.9872C21.6979 11.0724 21.4561 11.1151 21.1706 11.1151ZM21.2856 10.4375C21.5839 10.4375 21.8354 10.3789 22.0399 10.2617C22.2466 10.1445 22.4021 9.99325 22.5065 9.80788C22.6131 9.62251 22.6663 9.42756 22.6663 9.22301V8.53267C22.6344 8.57102 22.5641 8.60618 22.4554 8.63814C22.3489 8.66797 22.2253 8.6946 22.0847 8.71804C21.9462 8.73935 21.8109 8.75852 21.6788 8.77557C21.5488 8.79048 21.4433 8.80327 21.3623 8.81392C21.1663 8.83949 20.9831 8.88104 20.8126 8.93857C20.6443 8.99396 20.5079 9.07812 20.4035 9.19105C20.3013 9.30185 20.2501 9.45312 20.2501 9.64489C20.2501 9.90696 20.3471 10.1051 20.541 10.2393C20.737 10.3714 20.9852 10.4375 21.2856 10.4375Z" fill="black"/>
</svg>
